<?xml version="1.0" encoding="UTF-8"?>
<svg id="Calque_1" xmlns="http://www.w3.org/2000/svg" version="1.1" viewBox="0 0 888 160">
  <!-- Generator: Adobe Illustrator 29.7.0, SVG Export Plug-In . SVG Version: 2.1.1 Build 138)  -->
  <defs>
    <style>
      .st0 {
        fill: #4d1d99;
      }

      .st1 {
        fill: #e5e5e5;
      }

      .st2 {
        fill: #2c0e66;
      }

      .st3 {
        fill: #e82156;
      }
    </style>
  </defs>
  <rect class="st1" width="888" height="160"/>
  <g>
    <g>
      <path class="st3" d="M664.2,91.5c-7.4-1.7-11.9-5.6-11.9-12.4s6.1-11.7,14.3-11.7,11.2,2.8,14.8,6.6l-5.9,6.3c-1.8-2.4-4.8-5-9.2-5s-5.4,1.7-5.4,3.7,1.7,3.1,3.8,3.7l6.2,1.4c7.1,1.6,12,5.4,12,12.3s-5.3,12.2-15.5,12.2-13.2-3.8-16.3-7.6l5.8-5.9c2.9,3.8,6.6,5.7,11.2,5.7s6-2.1,6-4-1-2.8-4.8-3.8l-5.2-1.3Z"/>
      <path class="st3" d="M696,90.7c.5,5.9,4.5,9.5,10.3,9.5s7.9-2.2,10.1-5.5l6.2,5.8c-3.4,4.3-8.3,8-16.3,8-11.8,0-19.7-8.3-19.7-20.3s7-20.8,18.4-20.8,18,10.2,18,20.1,0,3.2,0,3.2h-26.8ZM696.5,83.4h16.7c0-3.4-2.1-7.7-8.2-7.7s-7.9,3.9-8.6,7.7Z"/>
      <path class="st3" d="M737.8,107.6h-9.1v-39.3h9v3.2c2-2.2,5.6-4.2,10.2-4.2,9.6,0,15.5,6.3,15.5,17.4v22.8h-9.1v-22.8c0-5.4-2.7-9.1-7.8-9.1s-8.7,4.1-8.7,10.3v21.7Z"/>
      <path class="st3" d="M787.1,67.4c5.1,0,8.7,1.9,11,3.8v-19.8h9.1v56.2h-9v-3.5c-2.4,2.5-5.6,4.4-11.1,4.4-11.3,0-19.2-8.7-19.2-20.5s7.9-20.6,19.2-20.6ZM787.8,75.5c-7,0-10.5,5.9-10.5,12.5s3.5,12.5,10.5,12.5,10.5-5.9,10.5-12.5-3.4-12.5-10.5-12.5Z"/>
    </g>
    <path class="st0" d="M824.7,51.5c-5.3,0-9.5,4.3-9.5,9.5s4.3,9.5,9.5,9.5,9.5-4.3,9.5-9.5-4.3-9.5-9.5-9.5ZM829.9,58.1l-4.7,8.7c-.1.3-.5.2-.6,0l-1-3.1c0-.3,0-.6.1-.8l1.5-2.2h-2.6c-.2,0-.5,0-.7-.2l-2.3-2.2c-.2-.2,0-.6.2-.6h9.7c.3,0,.4.3.3.6Z"/>
  </g>
  <g>
    <path class="st2" d="M50.4,60.3v5h-1.6v-11.4h4.3c1.1,0,1.8.3,2.4.7.7.6,1.1,1.4,1.1,2.4s-.4,1.8-1.1,2.4c-.6.5-1.3.7-2.4.7h-2.7ZM53,58.8c.8,0,1.2-.2,1.5-.5.3-.3.5-.7.5-1.1s-.2-.8-.5-1.1c-.3-.3-.7-.5-1.5-.5h-2.6v3.2h2.6Z"/>
    <path class="st2" d="M63.2,64.7c-.6.6-1.4.9-2.4.9s-1.4-.2-1.9-.5c-1.2-.7-1.9-2-1.9-3.5s.8-2.8,2-3.5c.5-.3,1.2-.5,1.9-.5s1.7.3,2.4.9v-.7h1.5v7.6h-1.5v-.7ZM63.1,60.1c-.5-.6-1.3-1.1-2.2-1.1-1.5,0-2.5,1.2-2.5,2.5s1.1,2.5,2.5,2.5,1.6-.4,2.1-1.1v-2.9Z"/>
    <path class="st2" d="M71.6,59.1c-.2,0-.4,0-.6,0-.8,0-1.6.6-2.1,1.3v5.1h-1.5v-7.6h1.5v.9c.4-.5,1.2-1,2.3-1s.4,0,.6,0l-.2,1.5Z"/>
    <path class="st2" d="M78.9,65.4c-.3,0-.8.2-1.2.2-1,0-1.7-.3-2.2-.9-.5-.5-.6-1.2-.6-2v-3.5h-2v-1.4h2v-2.1h1.5v2.1h2.4v1.4h-2.4v3.6c0,.4,0,.7.2,1,.2.3.6.4,1.1.4s.6,0,.8,0l.3,1.4Z"/>
    <path class="st2" d="M86.3,64.7c-.6.6-1.4.9-2.4.9s-1.4-.2-1.9-.5c-1.2-.7-1.9-2-1.9-3.5s.8-2.8,2-3.5c.5-.3,1.2-.5,1.9-.5s1.7.3,2.4.9v-.7h1.5v7.6h-1.5v-.7ZM86.3,60.1c-.5-.6-1.3-1.1-2.2-1.1-1.5,0-2.5,1.2-2.5,2.5s1.1,2.5,2.5,2.5,1.6-.4,2.1-1.1v-2.9Z"/>
    <path class="st2" d="M93.8,65.5c-.7,0-1.4-.2-1.9-.5-1.2-.7-1.9-2-1.9-3.5s.8-2.8,2-3.5c.5-.3,1.2-.5,1.9-.5s1.7.3,2.4.9v-.7h1.5v7.3c0,1.1-.1,1.9-.5,2.5-.6,1.2-1.8,1.9-3.3,1.9s-3.2-1-3.7-1.8l1.1-1.1c.6.7,1.3,1.4,2.5,1.4s1.5-.3,1.9-.9c.3-.4.4-1,.4-2v-.4c-.6.5-1.4.8-2.3.8ZM96.1,60.1c-.5-.6-1.3-1.1-2.2-1.1-1.5,0-2.5,1.2-2.5,2.5s1.1,2.5,2.5,2.5,1.6-.4,2.1-1.1v-2.9Z"/>
    <path class="st2" d="M101.3,61.9c0,1.3,1.1,2.3,2.5,2.3s1.8-.6,2.2-1l1,1c-.6.7-1.7,1.4-3.2,1.4-2.2,0-3.9-1.7-3.9-4s1.6-4,3.7-4,3.7,1.7,3.7,4,0,.2,0,.3h-5.9ZM101.4,60.6h4.2c-.2-1-1.1-1.7-2-1.7s-1.9.7-2.1,1.7Z"/>
    <path class="st2" d="M119.2,64.7c-.6.6-1.4.9-2.4.9s-1.4-.2-1.9-.5c-1.2-.7-1.9-2-1.9-3.5s.8-2.8,2-3.5c.5-.3,1.2-.5,1.9-.5s1.7.3,2.3.8v-4.6h1.5v11.5h-1.5v-.7ZM119.2,60.1c-.5-.6-1.3-1.1-2.2-1.1-1.5,0-2.5,1.2-2.5,2.5s1.1,2.5,2.5,2.5,1.6-.4,2.1-1.1v-2.9Z"/>
    <path class="st2" d="M124.3,61.9c0,1.3,1.1,2.3,2.5,2.3s1.8-.6,2.2-1l1,1c-.6.7-1.7,1.4-3.2,1.4-2.2,0-3.9-1.7-3.9-4s1.6-4,3.7-4,3.7,1.7,3.7,4,0,.2,0,.3h-5.9ZM124.5,60.6h4.2c-.2-1-1.1-1.7-2-1.7s-1.9.7-2.1,1.7Z"/>
    <path class="st2" d="M137.5,57.1c0-1,.1-1.7.5-2.1.6-.8,1.5-1.3,2.5-1.3s.7,0,.9.1l-.3,1.4c-.1,0-.4,0-.6,0-.4,0-.9.2-1.2.5-.2.3-.3.7-.3,1.4v.7h5.7v7.6h-1.5v-6.3h-4.1v6.3h-1.5v-6.3h-1.8v-1.4h1.8v-.6ZM144,53.8c.6,0,1,.5,1,1s-.5,1-1,1-1-.4-1-1,.4-1,1-1Z"/>
    <path class="st2" d="M154.4,63.8c-.6,1.1-2,1.8-3.4,1.8-2.4,0-4.1-1.7-4.1-4s1.7-4,4-4,2.5.7,3.2,1.7l-1.1,1c-.4-.6-1.1-1.2-2.1-1.2-1.4,0-2.4,1.1-2.4,2.5s1.1,2.5,2.5,2.5,1.7-.5,2.2-1.2l1.2.9Z"/>
    <path class="st2" d="M157.7,58.4c.4-.4,1.2-.8,2.2-.8s2.1.5,2.8,1.3c.5.6.7,1.4.7,2.7v3.7h-1.5v-3.8c0-1-.2-1.4-.5-1.8-.4-.5-.9-.7-1.6-.7-1,0-1.7.5-2.2,1.1v5.2h-1.5v-11.5h1.5v4.6Z"/>
    <path class="st2" d="M166.8,54c.6,0,1,.5,1,1s-.5,1-1,1-1-.4-1-1,.4-1,1-1ZM166.1,57.7h1.5v7.6h-1.5v-7.6Z"/>
    <path class="st2" d="M171.2,61.9c0,1.3,1.1,2.3,2.5,2.3s1.8-.6,2.2-1l1,1c-.6.7-1.7,1.4-3.2,1.4-2.2,0-3.9-1.7-3.9-4s1.6-4,3.7-4,3.7,1.7,3.7,4,0,.2,0,.3h-5.9ZM171.3,60.6h4.2c-.2-1-1.1-1.7-2-1.7s-1.9.7-2.1,1.7Z"/>
    <path class="st2" d="M183.4,59.1c-.2,0-.4,0-.6,0-.8,0-1.6.6-2.1,1.3v5.1h-1.5v-7.6h1.5v.9c.4-.5,1.2-1,2.3-1s.4,0,.6,0l-.2,1.5Z"/>
    <path class="st2" d="M185.5,63.3c.7.6,1.5.8,2.3.8s1.3-.4,1.3-1c0-.9-1.3-.9-2.4-1.3s-1.8-.9-1.8-2c0-1.6,1.5-2.4,2.8-2.4s1.9.4,2.5.8l-.8,1.1c-.5-.4-1-.6-1.6-.6s-1.4.4-1.4,1,.6.7,1.4.9c1.2.3,2.8.8,2.8,2.4s-1.3,2.3-2.8,2.3-2.2-.4-3.1-1.1l.8-1.1Z"/>
    <path class="st2" d="M197.2,63.3c.7.6,1.5.8,2.3.8s1.3-.4,1.3-1c0-.9-1.3-.9-2.4-1.3s-1.8-.9-1.8-2c0-1.6,1.5-2.4,2.8-2.4s1.9.4,2.5.8l-.8,1.1c-.5-.4-1-.6-1.6-.6s-1.4.4-1.4,1,.6.7,1.4.9c1.2.3,2.8.8,2.8,2.4s-1.3,2.3-2.8,2.3-2.2-.4-3.1-1.1l.8-1.1Z"/>
    <path class="st2" d="M205.4,61.9c0,1.3,1.1,2.3,2.5,2.3s1.8-.6,2.2-1l1,1c-.6.7-1.7,1.4-3.2,1.4-2.2,0-3.9-1.7-3.9-4s1.6-4,3.7-4,3.7,1.7,3.7,4,0,.2,0,.3h-5.9ZM205.6,60.6h4.2c-.2-1-1.1-1.7-2-1.7s-1.9.7-2.1,1.7Z"/>
    <path class="st2" d="M213.4,53.8h1.5v11.5h-1.5v-11.5Z"/>
    <path class="st2" d="M222.1,55.2c-.1,0-.4,0-.6,0-.4,0-.9.2-1.2.5-.2.3-.3.7-.3,1.4v.7h2.4v1.4h-2.4v6.3h-1.5v-6.3h-1.8v-1.4h1.8v-.6c0-1,.1-1.7.5-2.1.6-.8,1.5-1.3,2.5-1.3s.7,0,.9.1l-.3,1.4Z"/>
    <path class="st2" d="M229.1,60.6v1.3h-4.9v-1.3h4.9Z"/>
    <path class="st2" d="M233.3,58.4c.4-.4,1.2-.8,2.2-.8s2.1.5,2.8,1.3c.5.6.7,1.4.7,2.7v3.7h-1.5v-3.8c0-1-.2-1.4-.5-1.8-.4-.5-.9-.7-1.6-.7-1,0-1.7.5-2.2,1.1v5.2h-1.5v-11.5h1.5v4.6Z"/>
    <path class="st2" d="M245,57.6c2.3,0,3.9,1.7,3.9,4s-1.7,4-3.9,4-3.9-1.7-3.9-4,1.7-4,3.9-4ZM245,64.1c1.4,0,2.4-1.1,2.4-2.5s-1-2.5-2.4-2.5-2.4,1.1-2.4,2.5,1,2.5,2.4,2.5Z"/>
    <path class="st2" d="M251.1,63.3c.7.6,1.5.8,2.3.8s1.3-.4,1.3-1c0-.9-1.3-.9-2.4-1.3s-1.8-.9-1.8-2c0-1.6,1.5-2.4,2.8-2.4s1.9.4,2.5.8l-.8,1.1c-.5-.4-1-.6-1.6-.6s-1.4.4-1.4,1,.6.7,1.4.9c1.2.3,2.8.8,2.8,2.4s-1.3,2.3-2.8,2.3-2.2-.4-3.1-1.1l.8-1.1Z"/>
    <path class="st2" d="M263.1,65.4c-.3,0-.8.2-1.2.2-1,0-1.7-.3-2.2-.9-.5-.5-.6-1.2-.6-2v-3.5h-2v-1.4h2v-2.1h1.5v2.1h2.4v1.4h-2.4v3.6c0,.4,0,.7.2,1,.2.3.7.4,1.1.4s.6,0,.8,0l.3,1.4Z"/>
    <path class="st2" d="M265.8,61.9c0,1.3,1.1,2.3,2.5,2.3s1.8-.6,2.2-1l1,1c-.6.7-1.7,1.4-3.2,1.4-2.2,0-3.9-1.7-3.9-4s1.6-4,3.7-4,3.7,1.7,3.7,4,0,.2,0,.3h-5.9ZM265.9,60.6h4.2c-.2-1-1.1-1.7-2-1.7s-1.9.7-2.1,1.7Z"/>
    <path class="st2" d="M279.4,64.7c-.6.6-1.4.9-2.4.9s-1.4-.2-1.9-.5c-1.2-.7-2-2-2-3.5s.8-2.8,2-3.5c.5-.3,1.2-.5,1.9-.5s1.7.3,2.3.8v-4.6h1.5v11.5h-1.5v-.7ZM279.3,60.1c-.5-.6-1.3-1.1-2.2-1.1-1.5,0-2.5,1.2-2.5,2.5s1.1,2.5,2.5,2.5,1.6-.4,2.1-1.1v-2.9Z"/>
    <path class="st2" d="M285.2,63.3c.6,0,1.1.5,1.1,1.1s-.5,1.1-1.1,1.1-1.1-.5-1.1-1.1.5-1.1,1.1-1.1Z"/>
    <path class="st2" d="M50.4,79.8v5h-1.6v-11.4h4.3c1.1,0,1.8.3,2.4.7.7.6,1.1,1.4,1.1,2.4s-.4,1.8-1.1,2.4c-.6.5-1.3.7-2.4.7h-2.7ZM53,78.3c.8,0,1.2-.2,1.5-.5.3-.3.5-.7.5-1.1s-.2-.8-.5-1.1c-.3-.3-.7-.5-1.5-.5h-2.6v3.3h2.6Z"/>
    <path class="st2" d="M63.2,84.2c-.6.6-1.4.9-2.4.9s-1.4-.2-1.9-.5c-1.2-.7-1.9-2-1.9-3.5s.8-2.8,2-3.5c.5-.3,1.2-.5,1.9-.5s1.7.3,2.4.9v-.7h1.5v7.6h-1.5v-.7ZM63.1,79.6c-.5-.6-1.3-1.1-2.2-1.1-1.5,0-2.5,1.2-2.5,2.5s1.1,2.5,2.5,2.5,1.6-.4,2.1-1.1v-2.9Z"/>
    <path class="st2" d="M67.5,82.8c.7.6,1.5.8,2.3.8s1.3-.4,1.3-1c0-.9-1.3-.9-2.4-1.3-.9-.3-1.8-.9-1.8-2,0-1.6,1.5-2.4,2.8-2.4s1.9.4,2.5.8l-.8,1.1c-.5-.4-1-.6-1.6-.6s-1.4.4-1.4,1,.6.7,1.4.9c1.2.3,2.8.8,2.8,2.4s-1.3,2.3-2.8,2.3-2.2-.4-3.1-1.1l.8-1.1Z"/>
    <path class="st2" d="M84.8,84.2c-.6.6-1.4.9-2.4.9s-1.4-.2-1.9-.5c-1.2-.7-1.9-2-1.9-3.5s.8-2.8,2-3.5c.5-.3,1.2-.5,1.9-.5s1.7.3,2.3.8v-4.6h1.5v11.5h-1.5v-.7ZM84.7,79.6c-.5-.6-1.3-1.1-2.2-1.1-1.5,0-2.5,1.2-2.5,2.5s1.1,2.5,2.5,2.5,1.6-.4,2.1-1.1v-2.9Z"/>
    <path class="st2" d="M89.9,81.4c0,1.3,1.1,2.3,2.5,2.3s1.8-.6,2.2-1l1,1c-.6.7-1.7,1.4-3.2,1.4-2.2,0-3.9-1.7-3.9-4s1.6-4,3.7-4,3.7,1.7,3.7,4,0,.2,0,.3h-5.9ZM90,80.1h4.2c-.2-1-1.1-1.7-2-1.7s-1.9.7-2.1,1.7Z"/>
    <path class="st2" d="M104,76.5v8.4h-1.6v-11.4h1.1l6.8,8.4v-8.4h1.6v11.4h-1.1l-6.8-8.4Z"/>
    <path class="st2" d="M118.1,77.1c2.3,0,3.9,1.7,3.9,4s-1.7,4-3.9,4-3.9-1.7-3.9-4,1.7-4,3.9-4ZM118.1,83.6c1.4,0,2.4-1.1,2.4-2.5s-1-2.5-2.4-2.5-2.4,1.1-2.4,2.5,1,2.5,2.4,2.5Z"/>
    <path class="st2" d="M129.7,84.2c-.6.6-1.4.9-2.4.9s-1.4-.2-1.9-.5c-1.2-.7-2-2-2-3.5s.8-2.8,2-3.5c.5-.3,1.2-.5,1.9-.5s1.7.3,2.3.8v-4.6h1.5v11.5h-1.5v-.7ZM129.7,79.6c-.5-.6-1.3-1.1-2.2-1.1-1.5,0-2.5,1.2-2.5,2.5s1.1,2.5,2.5,2.5,1.6-.4,2.1-1.1v-2.9Z"/>
    <path class="st2" d="M134.8,81.4c0,1.3,1.1,2.3,2.5,2.3s1.8-.6,2.2-1l1,1c-.6.7-1.7,1.4-3.2,1.4-2.2,0-3.9-1.7-3.9-4s1.6-4,3.7-4,3.7,1.7,3.7,4,0,.2,0,.3h-5.9ZM135,80.1h4.2c-.2-1-1.1-1.7-2-1.7s-1.9.7-2.1,1.7Z"/>
    <path class="st2" d="M145.2,82.9l-2,4.2h-1.1l1.2-4.2h1.8Z"/>
    <path class="st2" d="M153.5,88.8h-1.5v-11.5h1.5v.7c.7-.6,1.5-.9,2.4-.9s1.3.2,1.9.5c1.2.7,2,2,2,3.5s-.8,2.8-2,3.5c-.5.3-1.2.5-1.9.5s-1.7-.3-2.3-.8v4.6ZM153.5,82.5c.5.7,1.3,1.1,2.1,1.1,1.5,0,2.5-1.2,2.5-2.5s-1-2.5-2.5-2.5-1.7.5-2.2,1.1v2.9Z"/>
    <path class="st2" d="M167.3,84.2c-.6.6-1.4.9-2.4.9s-1.4-.2-1.9-.5c-1.2-.7-2-2-2-3.5s.8-2.8,2-3.5c.5-.3,1.2-.5,1.9-.5s1.7.3,2.4.9v-.7h1.5v7.6h-1.5v-.7ZM167.3,79.6c-.5-.6-1.3-1.1-2.2-1.1-1.5,0-2.5,1.2-2.5,2.5s1.1,2.5,2.5,2.5,1.6-.4,2.1-1.1v-2.9Z"/>
    <path class="st2" d="M171.7,82.8c.7.6,1.5.8,2.3.8s1.3-.4,1.3-1c0-.9-1.3-.9-2.4-1.3s-1.8-.9-1.8-2c0-1.6,1.5-2.4,2.8-2.4s1.9.4,2.5.8l-.8,1.1c-.5-.4-1-.6-1.6-.6s-1.4.4-1.4,1,.6.7,1.4.9c1.2.3,2.8.8,2.8,2.4s-1.3,2.3-2.8,2.3-2.2-.4-3.1-1.1l.8-1.1Z"/>
    <path class="st2" d="M189,84.2c-.6.6-1.4.9-2.4.9s-1.4-.2-1.9-.5c-1.2-.7-2-2-2-3.5s.8-2.8,2-3.5c.5-.3,1.2-.5,1.9-.5s1.7.3,2.3.8v-4.6h1.5v11.5h-1.5v-.7ZM188.9,79.6c-.5-.6-1.3-1.1-2.2-1.1-1.5,0-2.5,1.2-2.5,2.5s1.1,2.5,2.5,2.5,1.6-.4,2.1-1.1v-2.9Z"/>
    <path class="st2" d="M194.1,81.4c0,1.3,1.1,2.3,2.5,2.3s1.8-.6,2.2-1l1,1c-.6.7-1.7,1.4-3.2,1.4-2.2,0-3.9-1.7-3.9-4s1.6-4,3.7-4,3.7,1.7,3.7,4,0,.2,0,.3h-5.9ZM194.2,80.1h4.2c-.2-1-1.1-1.7-2-1.7s-1.9.7-2.1,1.7Z"/>
    <path class="st2" d="M206.5,84.9v-11.4h3.4c1.8,0,3,.4,3.9,1.1,1.4,1,2.3,2.7,2.3,4.6s-.9,3.6-2.3,4.6c-.9.7-2.1,1.1-3.9,1.1h-3.4ZM213.1,76c-.7-.6-1.7-1-3.2-1h-1.7v8.3h1.7c1.6,0,2.5-.3,3.2-1,.9-.8,1.4-1.9,1.4-3.2s-.5-2.4-1.4-3.2Z"/>
    <path class="st2" d="M221.4,77.1c2.3,0,3.9,1.7,3.9,4s-1.7,4-3.9,4-3.9-1.7-3.9-4,1.7-4,3.9-4ZM221.4,83.6c1.4,0,2.4-1.1,2.4-2.5s-1-2.5-2.4-2.5-2.4,1.1-2.4,2.5,1,2.5,2.4,2.5Z"/>
    <path class="st2" d="M234.3,83.2c-.6,1.1-2,1.8-3.4,1.8-2.4,0-4.1-1.7-4.1-4s1.7-4,4-4,2.5.7,3.2,1.7l-1.1,1c-.4-.6-1.1-1.2-2.1-1.2-1.4,0-2.4,1.1-2.4,2.5s1.1,2.5,2.5,2.5,1.7-.5,2.2-1.2l1.2.9Z"/>
    <path class="st2" d="M243.4,84.9h-2.1l-3.8-3.7v3.7h-1.5v-11.5h1.5v6.8l3.2-2.9h2.2l-3.8,3.4,4.3,4.2Z"/>
    <path class="st2" d="M245.3,81.4c0,1.3,1.1,2.3,2.5,2.3s1.8-.6,2.2-1l1,1c-.6.7-1.7,1.4-3.2,1.4-2.2,0-3.9-1.7-3.9-4s1.6-4,3.7-4,3.7,1.7,3.7,4,0,.2,0,.3h-5.9ZM245.5,80.1h4.2c-.2-1-1.1-1.7-2-1.7s-1.9.7-2.1,1.7Z"/>
    <path class="st2" d="M257.6,78.6c-.2,0-.4,0-.6,0-.8,0-1.6.6-2.1,1.3v5.1h-1.5v-7.6h1.5v.9c.4-.5,1.2-1,2.3-1s.4,0,.6,0l-.2,1.5Z"/>
    <path class="st2" d="M260.5,82.8c.6,0,1.1.5,1.1,1.1s-.5,1.1-1.1,1.1-1.1-.5-1.1-1.1.5-1.1,1.1-1.1Z"/>
    <path class="st2" d="M49.8,103c-.7-.8-1.2-1.9-1.2-3.4v-6.7h1.6v6.7c0,1.1.3,1.7.7,2.2.6.6,1.4,1,2.4,1s1.8-.4,2.4-1c.5-.5.7-1.2.7-2.2v-6.7h1.6v6.7c0,1.5-.5,2.6-1.2,3.4-.9.9-2.1,1.5-3.5,1.5s-2.7-.6-3.5-1.5Z"/>
    <path class="st2" d="M62.2,97.5c.4-.4,1.2-.9,2.3-.9s2.1.5,2.8,1.3c.5.6.7,1.4.7,2.7v3.7h-1.5v-3.8c0-1-.2-1.4-.5-1.8-.4-.5-.9-.7-1.6-.7-1,0-1.7.5-2.2,1.1v5.2h-1.5v-7.6h1.5v.7Z"/>
    <path class="st2" d="M76.5,97.4c.4-.4,1.2-.8,2.2-.8s2.1.5,2.8,1.3c.5.6.7,1.4.7,2.7v3.7h-1.5v-3.8c0-1-.2-1.4-.5-1.8-.4-.5-.9-.7-1.6-.7-1,0-1.7.5-2.2,1.1v5.2h-1.5v-11.5h1.5v4.6Z"/>
    <path class="st2" d="M85.7,100.9c0,1.3,1.1,2.3,2.5,2.3s1.8-.6,2.2-1l1,1c-.6.7-1.7,1.4-3.2,1.4-2.2,0-3.9-1.7-3.9-4s1.6-4,3.7-4,3.7,1.7,3.7,4,0,.2,0,.3h-5.9ZM85.9,99.6h4.2c-.2-1-1.1-1.7-2-1.7s-1.9.7-2.1,1.7ZM87.4,95.4l1.1-2.4h1.7l-1.7,2.4h-1.1Z"/>
    <path class="st2" d="M95.2,104.4h-1.5v-11.5h1.5v4.6c.7-.6,1.5-.8,2.3-.8s1.3.2,1.9.5c1.2.7,2,2,2,3.5s-.8,2.8-2,3.5c-.5.3-1.2.5-1.9.5s-1.7-.3-2.4-.9v.7ZM95.3,102c.5.7,1.3,1.1,2.1,1.1,1.5,0,2.5-1.2,2.5-2.5s-1-2.5-2.5-2.5-1.7.5-2.2,1.1v2.9Z"/>
    <path class="st2" d="M104.4,100.9c0,1.3,1.1,2.3,2.5,2.3s1.8-.6,2.2-1l1,1c-.6.7-1.7,1.4-3.2,1.4-2.2,0-3.9-1.7-3.9-4s1.6-4,3.7-4,3.7,1.7,3.7,4,0,.2,0,.3h-5.9ZM104.6,99.6h4.2c-.2-1-1.1-1.7-2-1.7s-1.9.7-2.1,1.7Z"/>
    <path class="st2" d="M116.6,98.1c-.2,0-.4,0-.6,0-.8,0-1.6.6-2.1,1.3v5.1h-1.5v-7.6h1.5v.9c.4-.5,1.2-1,2.3-1s.4,0,.6,0l-.2,1.5Z"/>
    <path class="st2" d="M121.6,104.5c-.7,0-1.4-.2-1.9-.5-1.2-.7-1.9-2-1.9-3.5s.8-2.8,2-3.5c.5-.3,1.2-.5,1.9-.5s1.7.3,2.4.9v-.7h1.5v7.3c0,1.1-.1,1.9-.5,2.5-.6,1.2-1.8,1.9-3.3,1.9s-3.2-1-3.7-1.8l1.1-1.1c.6.7,1.3,1.4,2.5,1.4s1.5-.3,1.9-.9c.3-.4.4-1,.4-2v-.4c-.6.5-1.4.8-2.3.8ZM123.9,99.1c-.5-.6-1.3-1.1-2.2-1.1-1.5,0-2.5,1.2-2.5,2.5s1.1,2.5,2.5,2.5,1.6-.4,2.1-1.1v-2.9Z"/>
    <path class="st2" d="M129,100.9c0,1.3,1.1,2.3,2.5,2.3s1.8-.6,2.2-1l1,1c-.6.7-1.7,1.4-3.2,1.4-2.2,0-3.9-1.7-3.9-4s1.6-4,3.7-4,3.7,1.7,3.7,4,0,.2,0,.3h-5.9ZM129.2,99.6h4.2c-.2-1-1.1-1.7-2-1.7s-1.9.7-2.1,1.7Z"/>
    <path class="st2" d="M138.6,96.7v.7c.3-.3,1.2-.9,2.2-.9s2.1.5,2.7,1.3c.7-.7,1.5-1.3,2.9-1.3s2.1.5,2.7,1.3c.5.6.7,1.3.7,2.6v3.9h-1.5v-4.1c0-.8-.2-1.2-.4-1.5-.3-.4-.9-.7-1.4-.7-1.1,0-1.8.6-2.3,1.1,0,.4.1.8.1,1.3v3.9h-1.5v-4.1c0-.8-.2-1.2-.4-1.5-.3-.4-.9-.7-1.5-.7-.9,0-1.7.6-2.1,1.1v5.2h-1.5v-7.6h1.5Z"/>
    <path class="st2" d="M153.3,100.9c0,1.3,1.1,2.3,2.5,2.3s1.8-.6,2.2-1l1,1c-.6.7-1.7,1.4-3.2,1.4-2.2,0-3.9-1.7-3.9-4s1.6-4,3.7-4,3.7,1.7,3.7,4,0,.2,0,.3h-5.9ZM153.4,99.6h4.2c-.2-1-1.1-1.7-2-1.7s-1.9.7-2.1,1.7Z"/>
    <path class="st2" d="M162.8,97.5c.4-.4,1.2-.9,2.3-.9s2.1.5,2.8,1.3c.5.6.7,1.4.7,2.7v3.7h-1.5v-3.8c0-1-.2-1.4-.5-1.8-.4-.5-.9-.7-1.6-.7-1,0-1.7.5-2.2,1.1v5.2h-1.5v-7.6h1.5v.7Z"/>
    <path class="st2" d="M175.8,104.4c-.3,0-.8.2-1.2.2-1,0-1.7-.3-2.2-.9-.5-.5-.6-1.2-.6-2v-3.5h-2v-1.4h2v-2.1h1.5v2.1h2.4v1.4h-2.4v3.6c0,.4,0,.7.2,1,.2.3.7.4,1.1.4s.6,0,.8,0l.3,1.4Z"/>
    <path class="st2" d="M183.9,99.3v5h-1.6v-11.4h4.3c1.1,0,1.8.3,2.4.7.7.6,1.1,1.4,1.1,2.4s-.4,1.8-1.1,2.4c-.6.5-1.3.7-2.4.7h-2.7ZM186.5,97.8c.8,0,1.2-.2,1.5-.5.3-.3.5-.7.5-1.1s-.2-.8-.5-1.1c-.3-.3-.7-.5-1.5-.5h-2.6v3.3h2.6Z"/>
    <path class="st2" d="M199.9,99h-6.3v5.4h-1.6v-11.4h1.6v4.5h6.3v-4.5h1.6v11.4h-1.6v-5.4Z"/>
    <path class="st2" d="M206.1,99.3v5h-1.6v-11.4h4.3c1.1,0,1.8.3,2.4.7.7.6,1.1,1.4,1.1,2.4s-.4,1.8-1.1,2.4c-.6.5-1.3.7-2.4.7h-2.7ZM208.7,97.8c.8,0,1.2-.2,1.5-.5.3-.3.5-.7.5-1.1s-.2-.8-.5-1.1c-.3-.3-.7-.5-1.5-.5h-2.6v3.3h2.6Z"/>
    <path class="st2" d="M225.1,102.8c-.6,1.1-2,1.8-3.4,1.8-2.4,0-4.1-1.7-4.1-4s1.7-4,4-4,2.5.7,3.2,1.7l-1.1,1c-.4-.6-1.1-1.2-2.1-1.2-1.4,0-2.4,1.1-2.4,2.5s1.1,2.5,2.5,2.5,1.7-.5,2.2-1.2l1.2.9Z"/>
    <path class="st2" d="M226.8,92.8h1.5v11.5h-1.5v-11.5Z"/>
    <path class="st2" d="M236.7,103.7c-.6.6-1.4.9-2.4.9s-1.4-.2-1.9-.5c-1.2-.7-2-2-2-3.5s.8-2.8,2-3.5c.5-.3,1.2-.5,1.9-.5s1.7.3,2.4.9v-.7h1.5v7.6h-1.5v-.7ZM236.7,99.1c-.5-.6-1.3-1.1-2.2-1.1-1.5,0-2.5,1.2-2.5,2.5s1.1,2.5,2.5,2.5,1.6-.4,2.1-1.1v-2.9Z"/>
    <path class="st2" d="M241,102.3c.7.6,1.5.8,2.3.8s1.3-.4,1.3-1c0-.9-1.3-.9-2.4-1.3s-1.8-.9-1.8-2c0-1.6,1.5-2.4,2.8-2.4s1.9.4,2.5.8l-.8,1.1c-.5-.4-1-.6-1.6-.6s-1.4.4-1.4,1,.6.7,1.4.9c1.2.3,2.8.8,2.8,2.4s-1.3,2.3-2.8,2.3-2.2-.4-3.1-1.1l.8-1.1Z"/>
    <path class="st2" d="M248.4,102.3c.7.6,1.5.8,2.3.8s1.3-.4,1.3-1c0-.9-1.3-.9-2.4-1.3s-1.8-.9-1.8-2c0-1.6,1.5-2.4,2.8-2.4s1.9.4,2.5.8l-.8,1.1c-.5-.4-1-.6-1.6-.6s-1.4.4-1.4,1,.6.7,1.4.9c1.2.3,2.8.8,2.8,2.4s-1.3,2.3-2.8,2.3-2.2-.4-3.1-1.1l.8-1.1Z"/>
    <path class="st2" d="M256.5,93c.6,0,1,.5,1,1s-.5,1-1,1-1-.4-1-1,.4-1,1-1ZM255.8,96.7h1.5v7.6h-1.5v-7.6Z"/>
    <path class="st2" d="M263.3,104.5c-.7,0-1.4-.2-1.9-.5-1.2-.7-2-2-2-3.5s.8-2.8,2-3.5c.5-.3,1.2-.5,1.9-.5s1.7.3,2.4.9v-.7h1.5v11.5h-1.5v-4.6c-.6.5-1.4.8-2.3.8ZM265.6,99.1c-.5-.6-1.3-1.1-2.2-1.1-1.5,0-2.5,1.2-2.5,2.5s1.1,2.5,2.5,2.5,1.6-.4,2.1-1.1v-2.9Z"/>
    <path class="st2" d="M270.4,103.3c-.5-.6-.7-1.3-.7-2.6v-3.9h1.5v4.1c0,.8.2,1.2.4,1.5.3.4.9.7,1.5.7.9,0,1.7-.6,2.1-1.1v-5.2h1.5v7.6h-1.5v-.7c-.3.3-1.2.9-2.2.9s-2.1-.5-2.7-1.3Z"/>
    <path class="st2" d="M280.5,100.9c0,1.3,1.1,2.3,2.5,2.3s1.8-.6,2.2-1l1,1c-.6.7-1.7,1.4-3.2,1.4-2.2,0-3.9-1.7-3.9-4s1.6-4,3.7-4,3.7,1.7,3.7,4,0,.2,0,.3h-5.9ZM280.6,99.6h4.2c-.2-1-1.1-1.7-2-1.7s-1.9.7-2.1,1.7Z"/>
    <path class="st2" d="M293,102.3c.7.6,1.5.8,2.3.8s1.3-.4,1.3-1c0-.9-1.3-.9-2.4-1.3s-1.8-.9-1.8-2c0-1.6,1.5-2.4,2.8-2.4s1.9.4,2.5.8l-.8,1.1c-.5-.4-1-.6-1.6-.6s-1.4.4-1.4,1,.6.7,1.4.9c1.2.3,2.8.8,2.8,2.4s-1.3,2.3-2.8,2.3-2.2-.4-3.1-1.1l.8-1.1Z"/>
    <path class="st2" d="M300.8,103.3c-.5-.6-.7-1.3-.7-2.6v-3.9h1.5v4.1c0,.8.2,1.2.4,1.5.3.4.9.7,1.5.7.9,0,1.7-.6,2.1-1.1v-5.2h1.5v7.6h-1.5v-.7c-.3.3-1.2.9-2.2.9s-2.1-.5-2.7-1.3Z"/>
    <path class="st2" d="M320.1,94.2c-.1,0-.4,0-.6,0-.4,0-.9.2-1.2.5-.2.3-.3.7-.3,1.4v.7h5.7v7.6h-1.5v-6.3h-4.1v6.3h-1.5v-6.3h-4.1v6.3h-1.5v-6.3h-1.8v-1.4h1.8v-.7c0-1,.1-1.7.5-2.1.6-.8,1.5-1.3,2.5-1.3s.7,0,.9.1l-.3,1.4c-.1,0-.4,0-.6,0-.4,0-.9.2-1.2.5-.2.3-.3.7-.3,1.4v.7h4.1v-.7c0-1,.1-1.7.5-2.1.6-.8,1.5-1.3,2.5-1.3s.7,0,.9.1l-.3,1.4ZM323,92.8c.6,0,1,.5,1,1s-.5,1-1,1-1-.4-1-1,.4-1,1-1Z"/>
    <path class="st2" d="M331.2,104.4c-.3,0-.8.2-1.2.2-1,0-1.7-.3-2.2-.9-.5-.5-.6-1.2-.6-2v-3.5h-2v-1.4h2v-2.1h1.5v2.1h2.4v1.4h-2.4v3.6c0,.4,0,.7.2,1,.2.3.7.4,1.1.4s.6,0,.8,0l.3,1.4Z"/>
    <path class="st2" d="M334.9,102.3c.6,0,1.1.5,1.1,1.1s-.5,1.1-1.1,1.1-1.1-.5-1.1-1.1.5-1.1,1.1-1.1Z"/>
  </g>
</svg>